<svg width="17" height="17" viewBox="0 0 17 17" fill="none" xmlns="http://www.w3.org/2000/svg">
<path fill-rule="evenodd" clip-rule="evenodd" d="M10.3891 16.3333C10.3716 16.3333 10.355 16.3325 10.3383 16.3316C9.96164 16.3091 9.64748 16.0358 9.57248 15.6658L8.29081 9.35997C8.22414 9.03163 7.96831 8.7758 7.63998 8.70913L1.33414 7.42663C0.964143 7.35247 0.690809 7.0383 0.668309 6.66163C0.645809 6.28413 0.878309 5.93913 1.23664 5.8208L14.57 1.37663C14.8691 1.27497 15.1991 1.3533 15.4225 1.57747C15.6458 1.8008 15.7233 2.1308 15.6241 2.42997L11.1791 15.7633C11.0658 16.1058 10.7458 16.3333 10.3891 16.3333" fill="#231F20"/>
<path d="M10.3891 16.3333C10.3716 16.3333 10.355 16.3325 10.3383 16.3316C9.96164 16.3091 9.64748 16.0358 9.57248 15.6658L8.29081 9.35997C8.22414 9.03163 7.96831 8.7758 7.63998 8.70913L1.33414 7.42663C0.964143 7.35247 0.690809 7.0383 0.668309 6.66163C0.645809 6.28413 0.878309 5.93913 1.23664 5.8208L14.57 1.37663C14.8691 1.27497 15.1991 1.3533 15.4225 1.57747C15.6458 1.8008 15.7233 2.1308 15.6241 2.42997L11.1791 15.7633C11.0658 16.1058 10.7458 16.3333 10.3891 16.3333" stroke="black"/>
</svg>
