<svg id="Capa_1" enable-background="new 0 0 512 512" height="200" viewBox="0 0 512 512" width="512" xmlns="http://www.w3.org/2000/svg"><g><g><path d="m250.243 250.243v261.757h131.688l33.924-128.245-33.924-133.512z" fill="#83d947"/><path d="m381.931 250.243h130.069v261.757h-130.069z" fill="#32bea6"/></g><g><path d="m197.602 279.721v172.287h131.557l25.632-136.101-25.632-125.628z" fill="#7d89e5"/></g><path d="m459.407 190.279h-130.248v261.729h43.373l86.875-86.944z" fill="#6260d0"/><g><path d="m372.532 365.064v86.944l55.313-36.415 31.562-50.529z" fill="#5d519d"/><path d="m372.532 452.008h86.875v-86.944z" fill="#7d89e5"/></g><g><path d="m512 112.204-131.221-112.204-18.8 112.204z" fill="#f7a831"/><path d="m380.779 191.049v-191.049l-112.76 87.485z" fill="#fd9127"/><path d="m214.955 333.389-214.955 178.611 204.532-339.394 31.743 122.479z" fill="#fed943"/><g><path d="m199.775.962h-199.579l216.18 219.406z" fill="#fcbe2c"/><path d="m199.775.962 181.004 190.087-165.824 142.34z" fill="#f7a831"/></g></g></g></svg>